<mxfile host="app.diagrams.net" modified="2021-11-11T06:31:00.669Z" agent="5.0 (Macintosh; Intel Mac OS X 10_15_7) AppleWebKit/537.36 (KHTML, like Gecko) Chrome/95.0.4638.69 Safari/537.36" etag="JMWKWvZyAeRKW0tLdq33" version="15.7.0" type="github">
  <diagram id="c6vPCQbDTAW3_hjepVWK" name="Page-1">
    <mxGraphModel dx="1067" dy="712" grid="1" gridSize="10" guides="1" tooltips="1" connect="1" arrows="1" fold="1" page="0" pageScale="1" pageWidth="827" pageHeight="1169" math="0" shadow="0">
      <root>
        <mxCell id="0" />
        <mxCell id="1" parent="0" />
        <mxCell id="qctzH7rqazo4ZXe9pNT--70" value="" style="ellipse;whiteSpace=wrap;html=1;fillColor=none;" parent="1" vertex="1">
          <mxGeometry x="129" y="570" width="210" height="180" as="geometry" />
        </mxCell>
        <mxCell id="nqajYnND2lpwk76EezyJ-1" value="Caller" style="rounded=1;whiteSpace=wrap;html=1;fillColor=#9999FF;fontSize=16;" parent="1" vertex="1">
          <mxGeometry x="170" y="330" width="120" height="60" as="geometry" />
        </mxCell>
        <mxCell id="nqajYnND2lpwk76EezyJ-2" value="Service" style="rounded=1;whiteSpace=wrap;html=1;fillColor=#9999FF;fontSize=16;" parent="1" vertex="1">
          <mxGeometry x="620" y="330" width="120" height="60" as="geometry" />
        </mxCell>
        <mxCell id="nqajYnND2lpwk76EezyJ-3" value="Control Center" style="rounded=1;whiteSpace=wrap;html=1;fillColor=#33FFFF;fontSize=16;" parent="1" vertex="1">
          <mxGeometry x="290" y="180" width="120" height="60" as="geometry" />
        </mxCell>
        <mxCell id="nqajYnND2lpwk76EezyJ-4" value="Monitor" style="rounded=1;whiteSpace=wrap;html=1;fillColor=#33FFFF;fontSize=16;" parent="1" vertex="1">
          <mxGeometry x="500" y="180" width="120" height="60" as="geometry" />
        </mxCell>
        <mxCell id="nqajYnND2lpwk76EezyJ-5" value="Srvmgr" style="rounded=1;whiteSpace=wrap;html=1;fillColor=#00FFFF;fontSize=16;" parent="1" vertex="1">
          <mxGeometry x="400" y="40" width="120" height="60" as="geometry" />
        </mxCell>
        <mxCell id="nqajYnND2lpwk76EezyJ-6" value="" style="endArrow=classic;html=1;fontSize=16;entryX=0.5;entryY=1;entryDx=0;entryDy=0;exitX=0.5;exitY=0;exitDx=0;exitDy=0;dashed=1;strokeWidth=2;strokeColor=#6666FF;" parent="1" source="nqajYnND2lpwk76EezyJ-2" target="nqajYnND2lpwk76EezyJ-3" edge="1">
          <mxGeometry width="50" height="50" relative="1" as="geometry">
            <mxPoint x="420" y="420" as="sourcePoint" />
            <mxPoint x="470" y="370" as="targetPoint" />
          </mxGeometry>
        </mxCell>
        <mxCell id="nqajYnND2lpwk76EezyJ-7" value="1.registry" style="text;html=1;align=center;verticalAlign=middle;resizable=0;points=[];labelBackgroundColor=#ffffff;fontSize=16;" parent="nqajYnND2lpwk76EezyJ-6" vertex="1" connectable="0">
          <mxGeometry x="0.066" y="-2" relative="1" as="geometry">
            <mxPoint x="65.06" y="19.82" as="offset" />
          </mxGeometry>
        </mxCell>
        <mxCell id="nqajYnND2lpwk76EezyJ-8" value="" style="endArrow=none;html=1;fontSize=16;entryX=0.5;entryY=1;entryDx=0;entryDy=0;exitX=0.5;exitY=0;exitDx=0;exitDy=0;dashed=1;strokeWidth=2;strokeColor=#6666FF;startArrow=classic;startFill=1;endFill=0;" parent="1" source="nqajYnND2lpwk76EezyJ-1" target="nqajYnND2lpwk76EezyJ-3" edge="1">
          <mxGeometry width="50" height="50" relative="1" as="geometry">
            <mxPoint x="630" y="370" as="sourcePoint" />
            <mxPoint x="360" y="250" as="targetPoint" />
          </mxGeometry>
        </mxCell>
        <mxCell id="nqajYnND2lpwk76EezyJ-9" value="2.notify" style="text;html=1;align=center;verticalAlign=middle;resizable=0;points=[];labelBackgroundColor=#ffffff;fontSize=16;" parent="nqajYnND2lpwk76EezyJ-8" vertex="1" connectable="0">
          <mxGeometry x="-0.6533" y="3" relative="1" as="geometry">
            <mxPoint x="41" y="-32" as="offset" />
          </mxGeometry>
        </mxCell>
        <mxCell id="nqajYnND2lpwk76EezyJ-10" value="" style="endArrow=classic;html=1;fontSize=16;entryX=0;entryY=0.5;entryDx=0;entryDy=0;exitX=1;exitY=0.5;exitDx=0;exitDy=0;strokeWidth=2;strokeColor=#33FFFF;" parent="1" source="nqajYnND2lpwk76EezyJ-1" target="nqajYnND2lpwk76EezyJ-2" edge="1">
          <mxGeometry width="50" height="50" relative="1" as="geometry">
            <mxPoint x="690" y="340" as="sourcePoint" />
            <mxPoint x="360" y="250" as="targetPoint" />
          </mxGeometry>
        </mxCell>
        <mxCell id="nqajYnND2lpwk76EezyJ-11" value="3.invoke" style="text;html=1;align=center;verticalAlign=middle;resizable=0;points=[];labelBackgroundColor=#ffffff;fontSize=16;" parent="nqajYnND2lpwk76EezyJ-10" vertex="1" connectable="0">
          <mxGeometry x="0.066" y="-2" relative="1" as="geometry">
            <mxPoint x="-16" y="-15.000000000000004" as="offset" />
          </mxGeometry>
        </mxCell>
        <mxCell id="nqajYnND2lpwk76EezyJ-12" value="" style="endArrow=classic;html=1;fontSize=16;entryX=0.5;entryY=1;entryDx=0;entryDy=0;exitX=0.5;exitY=0;exitDx=0;exitDy=0;dashed=1;strokeWidth=2;strokeColor=#6666FF;" parent="1" source="nqajYnND2lpwk76EezyJ-1" target="nqajYnND2lpwk76EezyJ-4" edge="1">
          <mxGeometry width="50" height="50" relative="1" as="geometry">
            <mxPoint x="690" y="340" as="sourcePoint" />
            <mxPoint x="360" y="250" as="targetPoint" />
          </mxGeometry>
        </mxCell>
        <mxCell id="nqajYnND2lpwk76EezyJ-13" value="4.count" style="text;html=1;align=center;verticalAlign=middle;resizable=0;points=[];labelBackgroundColor=#ffffff;fontSize=16;" parent="nqajYnND2lpwk76EezyJ-12" vertex="1" connectable="0">
          <mxGeometry x="0.066" y="-2" relative="1" as="geometry">
            <mxPoint x="-26.11" y="5.960000000000001" as="offset" />
          </mxGeometry>
        </mxCell>
        <mxCell id="nqajYnND2lpwk76EezyJ-14" value="" style="endArrow=classic;html=1;fontSize=16;entryX=0.5;entryY=1;entryDx=0;entryDy=0;exitX=0.5;exitY=0;exitDx=0;exitDy=0;dashed=1;strokeWidth=2;strokeColor=#6666FF;" parent="1" source="nqajYnND2lpwk76EezyJ-2" target="nqajYnND2lpwk76EezyJ-4" edge="1">
          <mxGeometry width="50" height="50" relative="1" as="geometry">
            <mxPoint x="240" y="340" as="sourcePoint" />
            <mxPoint x="570" y="250" as="targetPoint" />
          </mxGeometry>
        </mxCell>
        <mxCell id="nqajYnND2lpwk76EezyJ-15" value="4.count" style="text;html=1;align=center;verticalAlign=middle;resizable=0;points=[];labelBackgroundColor=#ffffff;fontSize=16;" parent="nqajYnND2lpwk76EezyJ-14" vertex="1" connectable="0">
          <mxGeometry x="0.066" y="-2" relative="1" as="geometry">
            <mxPoint x="-7.200000000000003" y="-10.400000000000002" as="offset" />
          </mxGeometry>
        </mxCell>
        <mxCell id="nqajYnND2lpwk76EezyJ-16" value="" style="endArrow=classic;html=1;fontSize=16;entryX=0.5;entryY=0;entryDx=0;entryDy=0;exitX=0.5;exitY=1;exitDx=0;exitDy=0;dashed=1;strokeWidth=2;strokeColor=#6666FF;" parent="1" source="nqajYnND2lpwk76EezyJ-5" target="nqajYnND2lpwk76EezyJ-3" edge="1">
          <mxGeometry width="50" height="50" relative="1" as="geometry">
            <mxPoint x="690" y="340" as="sourcePoint" />
            <mxPoint x="360" y="250" as="targetPoint" />
          </mxGeometry>
        </mxCell>
        <mxCell id="nqajYnND2lpwk76EezyJ-17" value="6.op" style="text;html=1;align=center;verticalAlign=middle;resizable=0;points=[];labelBackgroundColor=#ffffff;fontSize=16;" parent="nqajYnND2lpwk76EezyJ-16" vertex="1" connectable="0">
          <mxGeometry x="0.066" y="-2" relative="1" as="geometry">
            <mxPoint x="-10.590000000000003" y="9.27" as="offset" />
          </mxGeometry>
        </mxCell>
        <mxCell id="nqajYnND2lpwk76EezyJ-18" value="" style="endArrow=none;html=1;fontSize=16;entryX=0.5;entryY=0;entryDx=0;entryDy=0;exitX=0.5;exitY=1;exitDx=0;exitDy=0;dashed=1;strokeWidth=2;strokeColor=#6666FF;startArrow=classic;startFill=1;endFill=0;" parent="1" source="nqajYnND2lpwk76EezyJ-5" target="nqajYnND2lpwk76EezyJ-4" edge="1">
          <mxGeometry width="50" height="50" relative="1" as="geometry">
            <mxPoint x="470" y="110" as="sourcePoint" />
            <mxPoint x="360" y="190" as="targetPoint" />
          </mxGeometry>
        </mxCell>
        <mxCell id="nqajYnND2lpwk76EezyJ-19" value="5.fetch" style="text;html=1;align=center;verticalAlign=middle;resizable=0;points=[];labelBackgroundColor=#ffffff;fontSize=16;" parent="nqajYnND2lpwk76EezyJ-18" vertex="1" connectable="0">
          <mxGeometry x="0.066" y="-2" relative="1" as="geometry">
            <mxPoint x="8.149999999999995" y="5.959999999999999" as="offset" />
          </mxGeometry>
        </mxCell>
        <mxCell id="kpHwbxMFUV27yNFj0fHA-5" value="" style="endArrow=none;html=1;fontSize=16;strokeWidth=2;strokeColor=#33FFFF;endFill=0;" parent="1" edge="1">
          <mxGeometry width="50" height="50" relative="1" as="geometry">
            <mxPoint x="670" y="90" as="sourcePoint" />
            <mxPoint x="740" y="90" as="targetPoint" />
          </mxGeometry>
        </mxCell>
        <mxCell id="kpHwbxMFUV27yNFj0fHA-6" value="sync" style="text;html=1;align=center;verticalAlign=middle;resizable=0;points=[];labelBackgroundColor=#ffffff;fontSize=16;" parent="kpHwbxMFUV27yNFj0fHA-5" vertex="1" connectable="0">
          <mxGeometry x="0.066" y="-2" relative="1" as="geometry">
            <mxPoint x="63" y="-2.0000000000000036" as="offset" />
          </mxGeometry>
        </mxCell>
        <mxCell id="kpHwbxMFUV27yNFj0fHA-7" value="" style="endArrow=none;html=1;fontSize=16;strokeWidth=2;strokeColor=#0000FF;endFill=0;dashed=1;" parent="1" edge="1">
          <mxGeometry width="50" height="50" relative="1" as="geometry">
            <mxPoint x="670" y="69.5" as="sourcePoint" />
            <mxPoint x="740" y="69.5" as="targetPoint" />
          </mxGeometry>
        </mxCell>
        <mxCell id="kpHwbxMFUV27yNFj0fHA-8" value="async" style="text;html=1;align=center;verticalAlign=middle;resizable=0;points=[];labelBackgroundColor=#ffffff;fontSize=16;" parent="kpHwbxMFUV27yNFj0fHA-7" vertex="1" connectable="0">
          <mxGeometry x="0.066" y="-2" relative="1" as="geometry">
            <mxPoint x="63" y="-2.0000000000000036" as="offset" />
          </mxGeometry>
        </mxCell>
        <mxCell id="qctzH7rqazo4ZXe9pNT--1" value="调用方" style="rounded=1;whiteSpace=wrap;html=1;fillColor=#dae8fc;fontSize=16;strokeColor=#6c8ebf;" parent="1" vertex="1">
          <mxGeometry x="870" y="330" width="120" height="60" as="geometry" />
        </mxCell>
        <mxCell id="qctzH7rqazo4ZXe9pNT--2" value="服务方" style="rounded=1;whiteSpace=wrap;html=1;fillColor=#d5e8d4;fontSize=16;strokeColor=#82b366;" parent="1" vertex="1">
          <mxGeometry x="1320" y="330" width="120" height="60" as="geometry" />
        </mxCell>
        <mxCell id="qctzH7rqazo4ZXe9pNT--3" value="注册中心" style="rounded=1;whiteSpace=wrap;html=1;fillColor=#e1d5e7;fontSize=16;strokeColor=#9673a6;" parent="1" vertex="1">
          <mxGeometry x="990" y="180" width="120" height="60" as="geometry" />
        </mxCell>
        <mxCell id="qctzH7rqazo4ZXe9pNT--4" value="监控" style="rounded=1;whiteSpace=wrap;html=1;fillColor=#e1d5e7;fontSize=16;strokeColor=#9673a6;" parent="1" vertex="1">
          <mxGeometry x="1200" y="180" width="120" height="60" as="geometry" />
        </mxCell>
        <mxCell id="qctzH7rqazo4ZXe9pNT--5" value="管理平台" style="rounded=1;whiteSpace=wrap;html=1;fillColor=#e1d5e7;fontSize=16;strokeColor=#9673a6;" parent="1" vertex="1">
          <mxGeometry x="1100" y="40" width="120" height="60" as="geometry" />
        </mxCell>
        <mxCell id="qctzH7rqazo4ZXe9pNT--6" value="" style="endArrow=classic;html=1;fontSize=16;entryX=0.5;entryY=1;entryDx=0;entryDy=0;exitX=0.5;exitY=0;exitDx=0;exitDy=0;dashed=1;strokeWidth=2;strokeColor=#6666FF;" parent="1" source="qctzH7rqazo4ZXe9pNT--2" target="qctzH7rqazo4ZXe9pNT--3" edge="1">
          <mxGeometry width="50" height="50" relative="1" as="geometry">
            <mxPoint x="1120" y="420" as="sourcePoint" />
            <mxPoint x="1170" y="370" as="targetPoint" />
          </mxGeometry>
        </mxCell>
        <mxCell id="qctzH7rqazo4ZXe9pNT--7" value="1.registry" style="text;html=1;align=center;verticalAlign=middle;resizable=0;points=[];labelBackgroundColor=#ffffff;fontSize=16;" parent="qctzH7rqazo4ZXe9pNT--6" vertex="1" connectable="0">
          <mxGeometry x="0.066" y="-2" relative="1" as="geometry">
            <mxPoint x="65.06" y="19.82" as="offset" />
          </mxGeometry>
        </mxCell>
        <mxCell id="qctzH7rqazo4ZXe9pNT--8" value="" style="endArrow=none;html=1;fontSize=16;entryX=0.5;entryY=1;entryDx=0;entryDy=0;exitX=0.5;exitY=0;exitDx=0;exitDy=0;dashed=1;strokeWidth=2;strokeColor=#6666FF;startArrow=classic;startFill=1;endFill=0;" parent="1" source="qctzH7rqazo4ZXe9pNT--1" target="qctzH7rqazo4ZXe9pNT--3" edge="1">
          <mxGeometry width="50" height="50" relative="1" as="geometry">
            <mxPoint x="1330" y="370" as="sourcePoint" />
            <mxPoint x="1060" y="250" as="targetPoint" />
          </mxGeometry>
        </mxCell>
        <mxCell id="qctzH7rqazo4ZXe9pNT--9" value="2.notify" style="text;html=1;align=center;verticalAlign=middle;resizable=0;points=[];labelBackgroundColor=#ffffff;fontSize=16;" parent="qctzH7rqazo4ZXe9pNT--8" vertex="1" connectable="0">
          <mxGeometry x="-0.6533" y="3" relative="1" as="geometry">
            <mxPoint x="41" y="-32" as="offset" />
          </mxGeometry>
        </mxCell>
        <mxCell id="qctzH7rqazo4ZXe9pNT--10" value="" style="endArrow=classic;html=1;fontSize=16;entryX=0;entryY=0.5;entryDx=0;entryDy=0;exitX=1;exitY=0.5;exitDx=0;exitDy=0;strokeWidth=2;strokeColor=#33FFFF;" parent="1" source="qctzH7rqazo4ZXe9pNT--1" target="qctzH7rqazo4ZXe9pNT--2" edge="1">
          <mxGeometry width="50" height="50" relative="1" as="geometry">
            <mxPoint x="1390" y="340" as="sourcePoint" />
            <mxPoint x="1060" y="250" as="targetPoint" />
          </mxGeometry>
        </mxCell>
        <mxCell id="qctzH7rqazo4ZXe9pNT--11" value="3.invoke" style="text;html=1;align=center;verticalAlign=middle;resizable=0;points=[];labelBackgroundColor=#ffffff;fontSize=16;" parent="qctzH7rqazo4ZXe9pNT--10" vertex="1" connectable="0">
          <mxGeometry x="0.066" y="-2" relative="1" as="geometry">
            <mxPoint x="-16" y="-15.000000000000004" as="offset" />
          </mxGeometry>
        </mxCell>
        <mxCell id="qctzH7rqazo4ZXe9pNT--12" value="" style="endArrow=classic;html=1;fontSize=16;entryX=0.5;entryY=1;entryDx=0;entryDy=0;exitX=0.5;exitY=0;exitDx=0;exitDy=0;dashed=1;strokeWidth=2;strokeColor=#6666FF;" parent="1" source="qctzH7rqazo4ZXe9pNT--1" target="qctzH7rqazo4ZXe9pNT--4" edge="1">
          <mxGeometry width="50" height="50" relative="1" as="geometry">
            <mxPoint x="1390" y="340" as="sourcePoint" />
            <mxPoint x="1060" y="250" as="targetPoint" />
          </mxGeometry>
        </mxCell>
        <mxCell id="qctzH7rqazo4ZXe9pNT--13" value="4.count" style="text;html=1;align=center;verticalAlign=middle;resizable=0;points=[];labelBackgroundColor=#ffffff;fontSize=16;" parent="qctzH7rqazo4ZXe9pNT--12" vertex="1" connectable="0">
          <mxGeometry x="0.066" y="-2" relative="1" as="geometry">
            <mxPoint x="-26.11" y="5.960000000000001" as="offset" />
          </mxGeometry>
        </mxCell>
        <mxCell id="qctzH7rqazo4ZXe9pNT--14" value="" style="endArrow=classic;html=1;fontSize=16;entryX=0.5;entryY=1;entryDx=0;entryDy=0;exitX=0.5;exitY=0;exitDx=0;exitDy=0;dashed=1;strokeWidth=2;strokeColor=#6666FF;" parent="1" source="qctzH7rqazo4ZXe9pNT--2" target="qctzH7rqazo4ZXe9pNT--4" edge="1">
          <mxGeometry width="50" height="50" relative="1" as="geometry">
            <mxPoint x="940" y="340" as="sourcePoint" />
            <mxPoint x="1270" y="250" as="targetPoint" />
          </mxGeometry>
        </mxCell>
        <mxCell id="qctzH7rqazo4ZXe9pNT--15" value="4.count" style="text;html=1;align=center;verticalAlign=middle;resizable=0;points=[];labelBackgroundColor=#ffffff;fontSize=16;" parent="qctzH7rqazo4ZXe9pNT--14" vertex="1" connectable="0">
          <mxGeometry x="0.066" y="-2" relative="1" as="geometry">
            <mxPoint x="-7.200000000000003" y="-10.400000000000002" as="offset" />
          </mxGeometry>
        </mxCell>
        <mxCell id="qctzH7rqazo4ZXe9pNT--16" value="" style="endArrow=classic;html=1;fontSize=16;entryX=0.5;entryY=0;entryDx=0;entryDy=0;exitX=0.5;exitY=1;exitDx=0;exitDy=0;dashed=1;strokeWidth=2;strokeColor=#6666FF;" parent="1" source="qctzH7rqazo4ZXe9pNT--5" target="qctzH7rqazo4ZXe9pNT--3" edge="1">
          <mxGeometry width="50" height="50" relative="1" as="geometry">
            <mxPoint x="1390" y="340" as="sourcePoint" />
            <mxPoint x="1060" y="250" as="targetPoint" />
          </mxGeometry>
        </mxCell>
        <mxCell id="qctzH7rqazo4ZXe9pNT--17" value="6.op" style="text;html=1;align=center;verticalAlign=middle;resizable=0;points=[];labelBackgroundColor=#ffffff;fontSize=16;" parent="qctzH7rqazo4ZXe9pNT--16" vertex="1" connectable="0">
          <mxGeometry x="0.066" y="-2" relative="1" as="geometry">
            <mxPoint x="-10.590000000000003" y="9.27" as="offset" />
          </mxGeometry>
        </mxCell>
        <mxCell id="qctzH7rqazo4ZXe9pNT--18" value="" style="endArrow=none;html=1;fontSize=16;entryX=0.5;entryY=0;entryDx=0;entryDy=0;exitX=0.5;exitY=1;exitDx=0;exitDy=0;dashed=1;strokeWidth=2;strokeColor=#6666FF;startArrow=classic;startFill=1;endFill=0;" parent="1" source="qctzH7rqazo4ZXe9pNT--5" target="qctzH7rqazo4ZXe9pNT--4" edge="1">
          <mxGeometry width="50" height="50" relative="1" as="geometry">
            <mxPoint x="1170" y="110" as="sourcePoint" />
            <mxPoint x="1060" y="190" as="targetPoint" />
          </mxGeometry>
        </mxCell>
        <mxCell id="qctzH7rqazo4ZXe9pNT--19" value="5.fetch" style="text;html=1;align=center;verticalAlign=middle;resizable=0;points=[];labelBackgroundColor=#ffffff;fontSize=16;" parent="qctzH7rqazo4ZXe9pNT--18" vertex="1" connectable="0">
          <mxGeometry x="0.066" y="-2" relative="1" as="geometry">
            <mxPoint x="8.149999999999995" y="5.959999999999999" as="offset" />
          </mxGeometry>
        </mxCell>
        <mxCell id="qctzH7rqazo4ZXe9pNT--20" value="" style="endArrow=none;html=1;fontSize=16;strokeWidth=2;strokeColor=#33FFFF;endFill=0;" parent="1" edge="1">
          <mxGeometry width="50" height="50" relative="1" as="geometry">
            <mxPoint x="1370" y="90" as="sourcePoint" />
            <mxPoint x="1440" y="90" as="targetPoint" />
          </mxGeometry>
        </mxCell>
        <mxCell id="qctzH7rqazo4ZXe9pNT--21" value="sync" style="text;html=1;align=center;verticalAlign=middle;resizable=0;points=[];labelBackgroundColor=#ffffff;fontSize=16;" parent="qctzH7rqazo4ZXe9pNT--20" vertex="1" connectable="0">
          <mxGeometry x="0.066" y="-2" relative="1" as="geometry">
            <mxPoint x="63" y="-2.0000000000000036" as="offset" />
          </mxGeometry>
        </mxCell>
        <mxCell id="qctzH7rqazo4ZXe9pNT--22" value="" style="endArrow=none;html=1;fontSize=16;strokeWidth=2;strokeColor=#0000FF;endFill=0;dashed=1;" parent="1" edge="1">
          <mxGeometry width="50" height="50" relative="1" as="geometry">
            <mxPoint x="1370" y="69.5" as="sourcePoint" />
            <mxPoint x="1440" y="69.5" as="targetPoint" />
          </mxGeometry>
        </mxCell>
        <mxCell id="qctzH7rqazo4ZXe9pNT--23" value="async" style="text;html=1;align=center;verticalAlign=middle;resizable=0;points=[];labelBackgroundColor=#ffffff;fontSize=16;" parent="qctzH7rqazo4ZXe9pNT--22" vertex="1" connectable="0">
          <mxGeometry x="0.066" y="-2" relative="1" as="geometry">
            <mxPoint x="63" y="-2.0000000000000036" as="offset" />
          </mxGeometry>
        </mxCell>
        <mxCell id="qctzH7rqazo4ZXe9pNT--25" value="" style="rounded=0;whiteSpace=wrap;html=1;fontSize=14;fillColor=none;dashed=1;strokeColor=#0000CC;" parent="1" vertex="1">
          <mxGeometry x="368" y="784" width="186" height="167" as="geometry" />
        </mxCell>
        <mxCell id="qctzH7rqazo4ZXe9pNT--26" value="" style="rounded=0;whiteSpace=wrap;html=1;fontSize=14;fillColor=none;dashed=1;strokeColor=#00CC00;" parent="1" vertex="1">
          <mxGeometry x="368" y="585" width="186" height="167" as="geometry" />
        </mxCell>
        <mxCell id="qctzH7rqazo4ZXe9pNT--27" value="" style="group" parent="1" vertex="1" connectable="0">
          <mxGeometry x="170" y="597" width="127" height="62" as="geometry" />
        </mxCell>
        <mxCell id="qctzH7rqazo4ZXe9pNT--28" value="192.168.0.1" style="rounded=0;whiteSpace=wrap;html=1;fontSize=14;fillColor=#dae8fc;strokeColor=#6c8ebf;" parent="qctzH7rqazo4ZXe9pNT--27" vertex="1">
          <mxGeometry width="127" height="43" as="geometry" />
        </mxCell>
        <mxCell id="qctzH7rqazo4ZXe9pNT--29" value="A1" style="text;html=1;align=center;verticalAlign=middle;resizable=0;points=[];autosize=1;strokeColor=none;fillColor=none;fontSize=14;" parent="qctzH7rqazo4ZXe9pNT--27" vertex="1">
          <mxGeometry x="53.5" y="41" width="27" height="21" as="geometry" />
        </mxCell>
        <mxCell id="qctzH7rqazo4ZXe9pNT--30" value="" style="group" parent="1" vertex="1" connectable="0">
          <mxGeometry x="170" y="791" width="127" height="62" as="geometry" />
        </mxCell>
        <mxCell id="qctzH7rqazo4ZXe9pNT--31" value="192.168.0.2" style="rounded=0;whiteSpace=wrap;html=1;fontSize=14;fillColor=#dae8fc;strokeColor=#6c8ebf;" parent="qctzH7rqazo4ZXe9pNT--30" vertex="1">
          <mxGeometry width="127" height="43" as="geometry" />
        </mxCell>
        <mxCell id="qctzH7rqazo4ZXe9pNT--32" value="B1" style="text;html=1;align=center;verticalAlign=middle;resizable=0;points=[];autosize=1;strokeColor=none;fillColor=none;fontSize=14;" parent="qctzH7rqazo4ZXe9pNT--30" vertex="1">
          <mxGeometry x="52.5" y="42" width="30" height="20" as="geometry" />
        </mxCell>
        <mxCell id="qctzH7rqazo4ZXe9pNT--33" value="" style="group" parent="1" vertex="1" connectable="0">
          <mxGeometry x="403" y="596" width="127" height="62" as="geometry" />
        </mxCell>
        <mxCell id="qctzH7rqazo4ZXe9pNT--34" value="192.168.0.10" style="rounded=0;whiteSpace=wrap;html=1;fontSize=14;fillColor=#e1d5e7;strokeColor=#9673a6;" parent="qctzH7rqazo4ZXe9pNT--33" vertex="1">
          <mxGeometry width="127" height="43" as="geometry" />
        </mxCell>
        <mxCell id="qctzH7rqazo4ZXe9pNT--35" value="S1,group=正常" style="text;html=1;align=center;verticalAlign=middle;resizable=0;points=[];autosize=1;strokeColor=none;fillColor=none;fontSize=14;" parent="qctzH7rqazo4ZXe9pNT--33" vertex="1">
          <mxGeometry x="12" y="41" width="103" height="21" as="geometry" />
        </mxCell>
        <mxCell id="qctzH7rqazo4ZXe9pNT--36" value="" style="group" parent="1" vertex="1" connectable="0">
          <mxGeometry x="403" y="682" width="127" height="62" as="geometry" />
        </mxCell>
        <mxCell id="qctzH7rqazo4ZXe9pNT--37" value="192.168.0.11" style="rounded=0;whiteSpace=wrap;html=1;fontSize=14;fillColor=#e1d5e7;strokeColor=#9673a6;" parent="qctzH7rqazo4ZXe9pNT--36" vertex="1">
          <mxGeometry width="127" height="43" as="geometry" />
        </mxCell>
        <mxCell id="qctzH7rqazo4ZXe9pNT--38" value="S2,group=正常" style="text;html=1;align=center;verticalAlign=middle;resizable=0;points=[];autosize=1;strokeColor=none;fillColor=none;fontSize=14;" parent="qctzH7rqazo4ZXe9pNT--36" vertex="1">
          <mxGeometry x="12" y="41" width="103" height="21" as="geometry" />
        </mxCell>
        <mxCell id="qctzH7rqazo4ZXe9pNT--39" value="" style="group" parent="1" vertex="1" connectable="0">
          <mxGeometry x="403" y="791" width="127" height="62" as="geometry" />
        </mxCell>
        <mxCell id="qctzH7rqazo4ZXe9pNT--40" value="192.168.0.12" style="rounded=0;whiteSpace=wrap;html=1;fontSize=14;fillColor=#e1d5e7;strokeColor=#9673a6;" parent="qctzH7rqazo4ZXe9pNT--39" vertex="1">
          <mxGeometry width="127" height="43" as="geometry" />
        </mxCell>
        <mxCell id="qctzH7rqazo4ZXe9pNT--41" value="S3,group=活动" style="text;html=1;align=center;verticalAlign=middle;resizable=0;points=[];autosize=1;strokeColor=none;fillColor=none;fontSize=14;" parent="qctzH7rqazo4ZXe9pNT--39" vertex="1">
          <mxGeometry x="12.5" y="41" width="103" height="21" as="geometry" />
        </mxCell>
        <mxCell id="qctzH7rqazo4ZXe9pNT--42" value="" style="group" parent="1" vertex="1" connectable="0">
          <mxGeometry x="403" y="877" width="127" height="62" as="geometry" />
        </mxCell>
        <mxCell id="qctzH7rqazo4ZXe9pNT--43" value="192.168.0.13" style="rounded=0;whiteSpace=wrap;html=1;fontSize=14;fillColor=#e1d5e7;strokeColor=#9673a6;" parent="qctzH7rqazo4ZXe9pNT--42" vertex="1">
          <mxGeometry width="127" height="43" as="geometry" />
        </mxCell>
        <mxCell id="qctzH7rqazo4ZXe9pNT--44" value="S4,group=活动" style="text;html=1;align=center;verticalAlign=middle;resizable=0;points=[];autosize=1;strokeColor=none;fillColor=none;fontSize=14;" parent="qctzH7rqazo4ZXe9pNT--42" vertex="1">
          <mxGeometry x="12.5" y="41" width="103" height="21" as="geometry" />
        </mxCell>
        <mxCell id="qctzH7rqazo4ZXe9pNT--45" value="" style="endArrow=classic;html=1;rounded=0;fontSize=14;exitX=1;exitY=0.5;exitDx=0;exitDy=0;entryX=0;entryY=0.5;entryDx=0;entryDy=0;" parent="1" source="qctzH7rqazo4ZXe9pNT--28" target="qctzH7rqazo4ZXe9pNT--34" edge="1">
          <mxGeometry width="50" height="50" relative="1" as="geometry">
            <mxPoint x="348" y="562" as="sourcePoint" />
            <mxPoint x="398" y="512" as="targetPoint" />
          </mxGeometry>
        </mxCell>
        <mxCell id="qctzH7rqazo4ZXe9pNT--46" value="" style="endArrow=classic;html=1;rounded=0;fontSize=14;exitX=1;exitY=0.5;exitDx=0;exitDy=0;entryX=0;entryY=0.5;entryDx=0;entryDy=0;" parent="1" source="qctzH7rqazo4ZXe9pNT--28" target="qctzH7rqazo4ZXe9pNT--37" edge="1">
          <mxGeometry width="50" height="50" relative="1" as="geometry">
            <mxPoint x="307" y="682.5" as="sourcePoint" />
            <mxPoint x="413" y="627.5" as="targetPoint" />
          </mxGeometry>
        </mxCell>
        <mxCell id="qctzH7rqazo4ZXe9pNT--47" value="" style="endArrow=classic;html=1;rounded=0;fontSize=14;exitX=1;exitY=0.5;exitDx=0;exitDy=0;entryX=0;entryY=0.5;entryDx=0;entryDy=0;strokeColor=#000000;" parent="1" source="qctzH7rqazo4ZXe9pNT--31" target="qctzH7rqazo4ZXe9pNT--40" edge="1">
          <mxGeometry width="50" height="50" relative="1" as="geometry">
            <mxPoint x="307" y="701.5" as="sourcePoint" />
            <mxPoint x="413" y="732.5" as="targetPoint" />
          </mxGeometry>
        </mxCell>
        <mxCell id="qctzH7rqazo4ZXe9pNT--48" value="" style="endArrow=classic;html=1;rounded=0;fontSize=14;exitX=1;exitY=0.5;exitDx=0;exitDy=0;entryX=0;entryY=0.5;entryDx=0;entryDy=0;strokeColor=#000000;" parent="1" source="qctzH7rqazo4ZXe9pNT--31" target="qctzH7rqazo4ZXe9pNT--43" edge="1">
          <mxGeometry width="50" height="50" relative="1" as="geometry">
            <mxPoint x="307" y="856.5" as="sourcePoint" />
            <mxPoint x="413" y="822.5" as="targetPoint" />
          </mxGeometry>
        </mxCell>
        <mxCell id="qctzH7rqazo4ZXe9pNT--49" value="正常分组" style="text;html=1;align=center;verticalAlign=middle;resizable=0;points=[];autosize=1;strokeColor=none;fillColor=none;fontSize=14;" parent="1" vertex="1">
          <mxGeometry x="563" y="658" width="66" height="21" as="geometry" />
        </mxCell>
        <mxCell id="qctzH7rqazo4ZXe9pNT--50" value="活动分组" style="text;html=1;align=center;verticalAlign=middle;resizable=0;points=[];autosize=1;strokeColor=none;fillColor=none;fontSize=14;" parent="1" vertex="1">
          <mxGeometry x="576" y="857" width="66" height="21" as="geometry" />
        </mxCell>
        <mxCell id="qctzH7rqazo4ZXe9pNT--57" value="" style="group" parent="1" vertex="1" connectable="0">
          <mxGeometry x="170" y="681" width="127" height="62" as="geometry" />
        </mxCell>
        <mxCell id="qctzH7rqazo4ZXe9pNT--58" value="192.168.0.1" style="rounded=0;whiteSpace=wrap;html=1;fontSize=14;fillColor=#dae8fc;strokeColor=#6c8ebf;" parent="qctzH7rqazo4ZXe9pNT--57" vertex="1">
          <mxGeometry width="127" height="43" as="geometry" />
        </mxCell>
        <mxCell id="qctzH7rqazo4ZXe9pNT--59" value="A2" style="text;html=1;align=center;verticalAlign=middle;resizable=0;points=[];autosize=1;strokeColor=none;fillColor=none;fontSize=14;" parent="qctzH7rqazo4ZXe9pNT--57" vertex="1">
          <mxGeometry x="52.5" y="42" width="30" height="20" as="geometry" />
        </mxCell>
        <mxCell id="qctzH7rqazo4ZXe9pNT--60" value="" style="endArrow=classic;html=1;rounded=0;fontSize=14;exitX=1;exitY=0.5;exitDx=0;exitDy=0;entryX=0;entryY=0.5;entryDx=0;entryDy=0;" parent="1" source="qctzH7rqazo4ZXe9pNT--58" target="qctzH7rqazo4ZXe9pNT--34" edge="1">
          <mxGeometry width="50" height="50" relative="1" as="geometry">
            <mxPoint x="307" y="628.5" as="sourcePoint" />
            <mxPoint x="413" y="627.5" as="targetPoint" />
          </mxGeometry>
        </mxCell>
        <mxCell id="qctzH7rqazo4ZXe9pNT--61" value="" style="endArrow=classic;html=1;rounded=0;fontSize=14;exitX=1;exitY=0.5;exitDx=0;exitDy=0;entryX=0;entryY=0.5;entryDx=0;entryDy=0;" parent="1" source="qctzH7rqazo4ZXe9pNT--58" target="qctzH7rqazo4ZXe9pNT--37" edge="1">
          <mxGeometry width="50" height="50" relative="1" as="geometry">
            <mxPoint x="307" y="628.5" as="sourcePoint" />
            <mxPoint x="413" y="713.5" as="targetPoint" />
          </mxGeometry>
        </mxCell>
        <mxCell id="qctzH7rqazo4ZXe9pNT--62" value="" style="group" parent="1" vertex="1" connectable="0">
          <mxGeometry x="170" y="877" width="127" height="62" as="geometry" />
        </mxCell>
        <mxCell id="qctzH7rqazo4ZXe9pNT--63" value="192.168.0.2" style="rounded=0;whiteSpace=wrap;html=1;fontSize=14;fillColor=#dae8fc;strokeColor=#6c8ebf;" parent="qctzH7rqazo4ZXe9pNT--62" vertex="1">
          <mxGeometry width="127" height="43" as="geometry" />
        </mxCell>
        <mxCell id="qctzH7rqazo4ZXe9pNT--64" value="B2" style="text;html=1;align=center;verticalAlign=middle;resizable=0;points=[];autosize=1;strokeColor=none;fillColor=none;fontSize=14;" parent="qctzH7rqazo4ZXe9pNT--62" vertex="1">
          <mxGeometry x="53.5" y="41" width="27" height="21" as="geometry" />
        </mxCell>
        <mxCell id="qctzH7rqazo4ZXe9pNT--65" value="" style="endArrow=classic;html=1;rounded=0;fontSize=14;exitX=1;exitY=0.5;exitDx=0;exitDy=0;entryX=0;entryY=0.5;entryDx=0;entryDy=0;strokeColor=#000000;" parent="1" source="qctzH7rqazo4ZXe9pNT--63" target="qctzH7rqazo4ZXe9pNT--40" edge="1">
          <mxGeometry width="50" height="50" relative="1" as="geometry">
            <mxPoint x="307" y="822.5" as="sourcePoint" />
            <mxPoint x="413" y="822.5" as="targetPoint" />
          </mxGeometry>
        </mxCell>
        <mxCell id="qctzH7rqazo4ZXe9pNT--66" value="" style="endArrow=classic;html=1;rounded=0;fontSize=14;exitX=1;exitY=0.5;exitDx=0;exitDy=0;entryX=0;entryY=0.5;entryDx=0;entryDy=0;strokeColor=#000000;" parent="1" source="qctzH7rqazo4ZXe9pNT--63" target="qctzH7rqazo4ZXe9pNT--43" edge="1">
          <mxGeometry width="50" height="50" relative="1" as="geometry">
            <mxPoint x="307" y="822.5" as="sourcePoint" />
            <mxPoint x="413" y="908.5" as="targetPoint" />
          </mxGeometry>
        </mxCell>
        <mxCell id="qctzH7rqazo4ZXe9pNT--71" value="" style="ellipse;whiteSpace=wrap;html=1;fillColor=none;" parent="1" vertex="1">
          <mxGeometry x="129" y="765" width="210" height="180" as="geometry" />
        </mxCell>
        <mxCell id="Z84fSyqLUMB_H-DxXF72-1" value="192.168.0.1&lt;br&gt;C1" style="rounded=1;whiteSpace=wrap;html=1;fillColor=#dae8fc;fontSize=16;strokeColor=#6c8ebf;" vertex="1" parent="1">
          <mxGeometry x="100" y="1390" width="120" height="60" as="geometry" />
        </mxCell>
        <mxCell id="Z84fSyqLUMB_H-DxXF72-2" value="192.168.1.1&lt;br&gt;S1" style="rounded=1;whiteSpace=wrap;html=1;fillColor=#d5e8d4;fontSize=16;strokeColor=#82b366;" vertex="1" parent="1">
          <mxGeometry x="792" y="1390" width="120" height="60" as="geometry" />
        </mxCell>
        <mxCell id="Z84fSyqLUMB_H-DxXF72-3" value="注册中心" style="rounded=1;whiteSpace=wrap;html=1;fillColor=#e1d5e7;fontSize=16;strokeColor=#9673a6;" vertex="1" parent="1">
          <mxGeometry x="304" y="1240" width="120" height="60" as="geometry" />
        </mxCell>
        <mxCell id="Z84fSyqLUMB_H-DxXF72-4" value="监控" style="rounded=1;whiteSpace=wrap;html=1;fillColor=#e1d5e7;fontSize=16;strokeColor=#9673a6;" vertex="1" parent="1">
          <mxGeometry x="541" y="1240" width="120" height="60" as="geometry" />
        </mxCell>
        <mxCell id="Z84fSyqLUMB_H-DxXF72-8" value="" style="endArrow=none;html=1;fontSize=16;entryX=0.5;entryY=1;entryDx=0;entryDy=0;exitX=1;exitY=0.5;exitDx=0;exitDy=0;dashed=1;strokeWidth=1;strokeColor=#6666FF;startArrow=classic;startFill=1;endFill=0;" edge="1" parent="1" source="Z84fSyqLUMB_H-DxXF72-1" target="Z84fSyqLUMB_H-DxXF72-3">
          <mxGeometry width="50" height="50" relative="1" as="geometry">
            <mxPoint x="560" y="1430" as="sourcePoint" />
            <mxPoint x="290" y="1310" as="targetPoint" />
          </mxGeometry>
        </mxCell>
        <mxCell id="Z84fSyqLUMB_H-DxXF72-9" value="&lt;font style=&quot;font-size: 14px&quot;&gt;4️⃣&amp;nbsp; 向所有调用方下发限流指令&lt;/font&gt;" style="text;html=1;align=center;verticalAlign=middle;resizable=0;points=[];labelBackgroundColor=#ffffff;fontSize=16;" vertex="1" connectable="0" parent="Z84fSyqLUMB_H-DxXF72-8">
          <mxGeometry x="-0.6533" y="3" relative="1" as="geometry">
            <mxPoint x="61" y="-32" as="offset" />
          </mxGeometry>
        </mxCell>
        <mxCell id="Z84fSyqLUMB_H-DxXF72-10" value="" style="endArrow=classic;html=1;fontSize=16;entryX=0;entryY=0.5;entryDx=0;entryDy=0;exitX=1;exitY=0.5;exitDx=0;exitDy=0;strokeWidth=1;strokeColor=#000000;" edge="1" parent="1" source="Z84fSyqLUMB_H-DxXF72-1" target="Z84fSyqLUMB_H-DxXF72-2">
          <mxGeometry width="50" height="50" relative="1" as="geometry">
            <mxPoint x="620" y="1400" as="sourcePoint" />
            <mxPoint x="290" y="1310" as="targetPoint" />
          </mxGeometry>
        </mxCell>
        <mxCell id="Z84fSyqLUMB_H-DxXF72-14" value="" style="endArrow=classic;html=1;fontSize=16;entryX=0.5;entryY=1;entryDx=0;entryDy=0;exitX=0;exitY=0.5;exitDx=0;exitDy=0;dashed=1;strokeWidth=1;strokeColor=#6666FF;" edge="1" parent="1" source="Z84fSyqLUMB_H-DxXF72-2" target="Z84fSyqLUMB_H-DxXF72-4">
          <mxGeometry width="50" height="50" relative="1" as="geometry">
            <mxPoint x="170" y="1400" as="sourcePoint" />
            <mxPoint x="500" y="1310" as="targetPoint" />
          </mxGeometry>
        </mxCell>
        <mxCell id="Z84fSyqLUMB_H-DxXF72-15" value="&lt;font style=&quot;font-size: 14px&quot;&gt;1️⃣&amp;nbsp; 定时每10s上报调用量（UDP）&lt;/font&gt;" style="text;html=1;align=center;verticalAlign=middle;resizable=0;points=[];labelBackgroundColor=#ffffff;fontSize=16;" vertex="1" connectable="0" parent="Z84fSyqLUMB_H-DxXF72-14">
          <mxGeometry x="0.066" y="-2" relative="1" as="geometry">
            <mxPoint x="-6" y="6" as="offset" />
          </mxGeometry>
        </mxCell>
        <mxCell id="Z84fSyqLUMB_H-DxXF72-24" value="192.168.0.2&lt;br&gt;C2" style="rounded=1;whiteSpace=wrap;html=1;fillColor=#dae8fc;fontSize=16;strokeColor=#6c8ebf;" vertex="1" parent="1">
          <mxGeometry x="100" y="1570" width="120" height="60" as="geometry" />
        </mxCell>
        <mxCell id="Z84fSyqLUMB_H-DxXF72-25" value="192.168.1.2&lt;br&gt;S2" style="rounded=1;whiteSpace=wrap;html=1;fillColor=#d5e8d4;fontSize=16;strokeColor=#82b366;" vertex="1" parent="1">
          <mxGeometry x="791" y="1570" width="120" height="60" as="geometry" />
        </mxCell>
        <mxCell id="Z84fSyqLUMB_H-DxXF72-28" value="" style="endArrow=classic;html=1;fontSize=16;entryX=0;entryY=0.5;entryDx=0;entryDy=0;exitX=1;exitY=0.5;exitDx=0;exitDy=0;strokeWidth=1;strokeColor=#000000;" edge="1" parent="1" source="Z84fSyqLUMB_H-DxXF72-1" target="Z84fSyqLUMB_H-DxXF72-25">
          <mxGeometry width="50" height="50" relative="1" as="geometry">
            <mxPoint x="230" y="1430" as="sourcePoint" />
            <mxPoint x="560" y="1430" as="targetPoint" />
          </mxGeometry>
        </mxCell>
        <mxCell id="Z84fSyqLUMB_H-DxXF72-29" value="" style="endArrow=classic;html=1;fontSize=16;entryX=0;entryY=0.5;entryDx=0;entryDy=0;exitX=1;exitY=0.5;exitDx=0;exitDy=0;strokeWidth=1;strokeColor=#000000;" edge="1" parent="1" source="Z84fSyqLUMB_H-DxXF72-24" target="Z84fSyqLUMB_H-DxXF72-2">
          <mxGeometry width="50" height="50" relative="1" as="geometry">
            <mxPoint x="230" y="1430" as="sourcePoint" />
            <mxPoint x="559" y="1570" as="targetPoint" />
          </mxGeometry>
        </mxCell>
        <mxCell id="Z84fSyqLUMB_H-DxXF72-30" value="" style="endArrow=classic;html=1;fontSize=16;entryX=0;entryY=0.5;entryDx=0;entryDy=0;exitX=1;exitY=0.5;exitDx=0;exitDy=0;strokeWidth=1;strokeColor=#000000;" edge="1" parent="1" source="Z84fSyqLUMB_H-DxXF72-24" target="Z84fSyqLUMB_H-DxXF72-25">
          <mxGeometry width="50" height="50" relative="1" as="geometry">
            <mxPoint x="230" y="1610" as="sourcePoint" />
            <mxPoint x="560" y="1470" as="targetPoint" />
          </mxGeometry>
        </mxCell>
        <mxCell id="Z84fSyqLUMB_H-DxXF72-31" value="" style="endArrow=classic;html=1;fontSize=16;exitX=0;exitY=0.5;exitDx=0;exitDy=0;dashed=1;strokeWidth=1;strokeColor=#6666FF;entryX=0.5;entryY=1;entryDx=0;entryDy=0;" edge="1" parent="1" source="Z84fSyqLUMB_H-DxXF72-25" target="Z84fSyqLUMB_H-DxXF72-4">
          <mxGeometry width="50" height="50" relative="1" as="geometry">
            <mxPoint x="750" y="1430" as="sourcePoint" />
            <mxPoint x="570" y="1320" as="targetPoint" />
          </mxGeometry>
        </mxCell>
        <mxCell id="Z84fSyqLUMB_H-DxXF72-33" value="" style="endArrow=none;html=1;fontSize=16;entryX=0.5;entryY=1;entryDx=0;entryDy=0;exitX=1;exitY=0.5;exitDx=0;exitDy=0;dashed=1;strokeWidth=1;strokeColor=#6666FF;startArrow=classic;startFill=1;endFill=0;" edge="1" parent="1" source="Z84fSyqLUMB_H-DxXF72-24" target="Z84fSyqLUMB_H-DxXF72-3">
          <mxGeometry width="50" height="50" relative="1" as="geometry">
            <mxPoint x="230" y="1430" as="sourcePoint" />
            <mxPoint x="380" y="1310" as="targetPoint" />
          </mxGeometry>
        </mxCell>
        <mxCell id="Z84fSyqLUMB_H-DxXF72-35" value="" style="endArrow=classic;html=1;fontSize=16;exitX=0;exitY=0.5;exitDx=0;exitDy=0;dashed=1;strokeWidth=1;strokeColor=#6666FF;entryX=1;entryY=0.5;entryDx=0;entryDy=0;" edge="1" parent="1" source="Z84fSyqLUMB_H-DxXF72-4" target="Z84fSyqLUMB_H-DxXF72-3">
          <mxGeometry width="50" height="50" relative="1" as="geometry">
            <mxPoint x="749" y="1610" as="sourcePoint" />
            <mxPoint x="590" y="1310" as="targetPoint" />
          </mxGeometry>
        </mxCell>
        <mxCell id="Z84fSyqLUMB_H-DxXF72-36" value="&lt;font style=&quot;font-size: 14px&quot;&gt;3️⃣&amp;nbsp; 下发限流指令&lt;/font&gt;" style="text;html=1;align=center;verticalAlign=middle;resizable=0;points=[];labelBackgroundColor=#ffffff;fontSize=16;" vertex="1" connectable="0" parent="Z84fSyqLUMB_H-DxXF72-35">
          <mxGeometry x="0.066" y="-2" relative="1" as="geometry">
            <mxPoint x="6" y="-13" as="offset" />
          </mxGeometry>
        </mxCell>
        <mxCell id="Z84fSyqLUMB_H-DxXF72-37" value="&lt;font style=&quot;font-size: 16px&quot;&gt;Redis&lt;/font&gt;" style="shape=cylinder3;whiteSpace=wrap;html=1;boundedLbl=1;backgroundOutline=1;size=15;fillColor=#f5f5f5;strokeColor=#666666;fontColor=#333333;" vertex="1" parent="1">
          <mxGeometry x="829" y="1230" width="60" height="80" as="geometry" />
        </mxCell>
        <mxCell id="Z84fSyqLUMB_H-DxXF72-38" value="" style="endArrow=classic;html=1;fontSize=16;entryX=0;entryY=0.5;entryDx=0;entryDy=0;exitX=1;exitY=0.5;exitDx=0;exitDy=0;strokeWidth=1;strokeColor=#000000;entryPerimeter=0;" edge="1" parent="1" source="Z84fSyqLUMB_H-DxXF72-4" target="Z84fSyqLUMB_H-DxXF72-37">
          <mxGeometry width="50" height="50" relative="1" as="geometry">
            <mxPoint x="230" y="1430" as="sourcePoint" />
            <mxPoint x="749" y="1610" as="targetPoint" />
          </mxGeometry>
        </mxCell>
        <mxCell id="Z84fSyqLUMB_H-DxXF72-41" value="&lt;font style=&quot;font-size: 14px&quot;&gt;2️⃣&amp;nbsp; 写入全局缓存，并判断&lt;/font&gt;" style="text;html=1;align=center;verticalAlign=middle;resizable=0;points=[];autosize=1;strokeColor=none;fillColor=none;fontSize=16;" vertex="1" parent="1">
          <mxGeometry x="654" y="1250" width="180" height="20" as="geometry" />
        </mxCell>
        <mxCell id="Z84fSyqLUMB_H-DxXF72-42" value="&lt;span style=&quot;font-size: 14px&quot;&gt;5️⃣&amp;nbsp; 当前分钟停止调用，抛出异常&lt;/span&gt;" style="text;html=1;align=center;verticalAlign=middle;resizable=0;points=[];labelBackgroundColor=#ffffff;fontSize=16;" vertex="1" connectable="0" parent="1">
          <mxGeometry x="161.00252774812256" y="1459.9994353719444" as="geometry" />
        </mxCell>
        <mxCell id="Z84fSyqLUMB_H-DxXF72-45" value="&lt;span style=&quot;font-size: 14px&quot;&gt;5️⃣&amp;nbsp; 当前分钟停止调用，抛出异常&lt;/span&gt;" style="text;html=1;align=center;verticalAlign=middle;resizable=0;points=[];labelBackgroundColor=#ffffff;fontSize=16;" vertex="1" connectable="0" parent="1">
          <mxGeometry x="160.00252774812256" y="1639.9994353719444" as="geometry" />
        </mxCell>
      </root>
    </mxGraphModel>
  </diagram>
</mxfile>
